<?xml version="1.0" encoding="UTF-8" standalone="no"?><!-- Generator: Gravit.io --><svg xmlns="http://www.w3.org/2000/svg" xmlns:xlink="http://www.w3.org/1999/xlink" style="isolation:isolate" viewBox="0 0 512 512" width="512pt" height="512pt"><defs><clipPath id="_clipPath_ICrMLxXHkxfQIzLPYGTCo7dwQyQfpvrG"><rect width="512" height="512"/></clipPath></defs><g clip-path="url(#_clipPath_ICrMLxXHkxfQIzLPYGTCo7dwQyQfpvrG)"><g><path d=" M 512 386.342 C 512 444.271 455.111 444.271 455.111 444.271 L 56.889 444.271 C 56.889 444.271 0 444.271 0 386.342 L 0 125.658 C 0 125.658 0 67.729 56.889 67.729 L 455.111 67.729 C 512 67.729 512 125.658 512 125.658 L 512 386.342 Z " fill="rgb(0,112,243)"/><ellipse vector-effect="non-scaling-stroke" cx="391.11111111111114" cy="190.82918826416162" rx="78.22222222222223" ry="79.65321434380147" fill="rgb(255,255,255)"/><ellipse vector-effect="non-scaling-stroke" cx="391.1111111111109" cy="350.1356169517654" rx="49.77777777777777" ry="50.68840912787368" fill="rgb(255,255,255)"/><ellipse vector-effect="non-scaling-stroke" cx="391.1111111111109" cy="190.82918826416213" rx="49.77777777777777" ry="50.688409127873655" fill="rgb(1,112,242)"/><ellipse vector-effect="non-scaling-stroke" cx="391.1111111111115" cy="350.1356169517659" rx="21.33333333333337" ry="21.723603911945872" fill="rgb(1,112,242)"/><g><ellipse vector-effect="non-scaling-stroke" cx="149.3333333333329" cy="292.2060065199096" rx="21.333333333333343" ry="21.723603911945872" fill="rgb(255,255,255)"/><ellipse vector-effect="non-scaling-stroke" cx="78.22222222222261" cy="292.2060065199096" rx="21.333333333333343" ry="21.723603911945872" fill="rgb(255,255,255)"/><ellipse vector-effect="non-scaling-stroke" cx="149.3333333333329" cy="219.79399348009062" rx="21.333333333333343" ry="21.723603911945844" fill="rgb(255,255,255)"/><ellipse vector-effect="non-scaling-stroke" cx="220.44444444444466" cy="219.79399348009062" rx="21.333333333333343" ry="21.723603911945844" fill="rgb(255,255,255)"/><ellipse vector-effect="non-scaling-stroke" cx="220.44444444444466" cy="292.2060065199096" rx="21.333333333333343" ry="21.723603911945872" fill="rgb(255,255,255)"/><ellipse vector-effect="non-scaling-stroke" cx="220.44444444444466" cy="364.6180195597291" rx="21.333333333333343" ry="21.723603911945872" fill="rgb(255,255,255)"/><ellipse vector-effect="non-scaling-stroke" cx="78.22222222222261" cy="364.6180195597291" rx="21.333333333333343" ry="21.723603911945872" fill="rgb(255,255,255)"/><ellipse vector-effect="non-scaling-stroke" cx="78.22222222222261" cy="219.79399348009062" rx="21.333333333333343" ry="21.723603911945844" fill="rgb(255,255,255)"/><ellipse vector-effect="non-scaling-stroke" cx="149.3333333333329" cy="147.38198044027055" rx="21.333333333333343" ry="21.72360391194585" fill="rgb(255,255,255)"/><ellipse vector-effect="non-scaling-stroke" cx="220.44444444444466" cy="147.38198044027055" rx="21.333333333333343" ry="21.72360391194585" fill="rgb(255,255,255)"/><ellipse vector-effect="non-scaling-stroke" cx="78.22222222222261" cy="147.38198044027055" rx="21.333333333333343" ry="21.72360391194585" fill="rgb(255,255,255)"/><ellipse vector-effect="non-scaling-stroke" cx="149.3333333333329" cy="364.6180195597291" rx="21.333333333333343" ry="21.723603911945872" fill="rgb(255,255,255)"/></g></g></g></svg>