<svg width="17" height="17" viewBox="0 0 17 17" fill="none" xmlns="http://www.w3.org/2000/svg">
<path d="M15.1696 1.30251L14.6044 0.802592C13.2882 -0.36455 11.2727 -0.243533 10.106 1.07301L8.48861 2.8977C8.12356 3.30962 8.1615 3.942 8.57324 4.3074L8.72504 4.44209C9.13821 4.8084 9.76865 4.77058 10.1352 4.35735L11.7525 2.53271C12.1133 2.12606 12.7382 2.08863 13.1451 2.44882L13.7096 2.9496C14.1166 3.31025 14.1549 3.93507 13.7936 4.34196L10.2571 8.33157C9.95775 8.66979 9.46796 8.76099 9.066 8.55329C8.62645 8.32631 8.09037 8.42604 7.76217 8.79618L7.73459 8.82731C7.51252 9.07776 7.41994 9.41025 7.4806 9.73954C7.5413 10.0687 7.7462 10.3463 8.04277 10.5013C8.51179 10.7464 9.01828 10.8651 9.5198 10.8651C10.4085 10.8651 11.2818 10.4925 11.9041 9.79081L15.4404 5.80166C16.6059 4.48689 16.4846 2.46885 15.1696 1.30251Z" fill="#0C0C0C"/>
<path d="M7.66711 11.9347L7.51497 11.7999C7.10276 11.4347 6.47021 11.473 6.1051 11.8851L4.48845 13.7095C4.12752 14.1161 3.50304 14.1538 3.0965 13.7938L2.53124 13.2924C2.12413 12.9318 2.08591 12.3075 2.4473 11.9005L5.98374 7.91119C6.27693 7.58007 6.75934 7.48537 7.15695 7.68072C7.6139 7.90524 8.16874 7.79607 8.50702 7.41431L8.51972 7.4C8.73704 7.15465 8.82847 6.82902 8.77068 6.50659C8.71289 6.18411 8.51411 5.91055 8.22522 5.75594C6.91903 5.05673 5.32029 5.34283 4.3374 6.45201L0.800721 10.4405V10.4406C-0.364876 11.7554 -0.24363 13.7733 1.07114 14.9392L1.63628 15.4398C2.24183 15.9767 2.99637 16.2404 3.74839 16.2404C4.62921 16.2404 5.50637 15.8784 6.13543 15.1691L7.75231 13.3446C8.1181 12.9315 8.08057 12.3012 7.66711 11.9347Z" fill="#0C0C0C"/>
</svg>
