<?xml version="1.0" standalone="no"?>
<!DOCTYPE svg PUBLIC "-//W3C//DTD SVG 20010904//EN"
 "http://www.w3.org/TR/2001/REC-SVG-20010904/DTD/svg10.dtd">
<svg version="1.0" xmlns="http://www.w3.org/2000/svg"
 width="700.000000pt" height="700.000000pt" viewBox="0 0 700.000000 700.000000"
 preserveAspectRatio="xMidYMid meet">
<metadata>
Created by potrace 1.14, written by Peter Selinger 2001-2017
</metadata>
<g transform="translate(0.000000,700.000000) scale(0.100000,-0.100000)"
fill="#000000" stroke="none">
<path d="M1215 6985 c-123 -21 -134 -23 -235 -56 -416 -136 -754 -464 -896
-869 -35 -103 -58 -193 -71 -289 -10 -69 -11 -4455 -1 -4531 77 -606 542
-1100 1145 -1216 13 -2 38 -7 55 -11 18 -4 1032 -8 2253 -9 2396 -3 2296 -5
2497 50 417 114 767 425 930 826 32 80 65 183 73 229 3 19 7 37 9 40 18 29 21
416 21 2361 0 1840 -2 2246 -14 2300 -7 36 -14 72 -16 80 -63 323 -289 658
-582 860 -155 107 -384 203 -543 226 -14 2 -52 8 -85 13 -37 6 -914 10 -2260
9 -1782 0 -2215 -3 -2280 -13z"/>
</g>
</svg>
